<?xml version="1.0" standalone="no"?>
<!DOCTYPE svg PUBLIC "-//W3C//DTD SVG 20010904//EN"
 "http://www.w3.org/TR/2001/REC-SVG-20010904/DTD/svg10.dtd">
<svg version="1.0" xmlns="http://www.w3.org/2000/svg"
 width="274.000000pt" height="244.000000pt" viewBox="0 0 274.000000 274.000000"
 >
<metadata>
Created by potrace 1.11, written by Peter Selinger 2001-2013
</metadata>
<g transform="translate(0.000000,274.000000) scale(0.100000,-0.100000)" stroke="none">
<path d="M1960 2044 c-331 -63 -554 -284 -615 -609 -3 -16 -5 -68 -6 -115 -2
-294 175 -559 450 -674 167 -71 402 -81 596 -25 91 26 265 129 323 192 l23 24
-118 111 -117 110 -61 -44 c-208 -148 -464 -143 -619 12 -122 122 -151 326
-70 489 98 197 350 273 582 174 45 -20 119 -67 147 -95 19 -19 2 -31 174 126
l92 84 -33 29 c-126 107 -249 173 -378 202 -93 21 -283 25 -370 9z m365 -79
c39 -10 97 -31 130 -47 57 -28 165 -103 165 -114 0 -3 -6 -11 -13 -17 -7 -7
-36 -34 -63 -60 l-50 -48 -60 36 c-165 100 -392 112 -569 31 -62 -28 -157
-114 -191 -172 -113 -193 -85 -441 69 -595 53 -52 164 -113 227 -124 19 -3 43
-8 53 -11 25 -8 134 -7 187 0 72 11 162 44 221 80 l53 34 33 -29 c19 -16 49
-44 68 -64 l35 -34 -53 -40 c-64 -49 -161 -95 -247 -118 -70 -18 -276 -24
-340 -10 -178 40 -309 118 -407 244 -102 131 -145 270 -139 443 7 164 63 301
171 418 102 110 206 169 355 203 96 21 268 18 365 -6z"/>
<path d="M2050 1959 c0 -3 16 -6 35 -5 19 0 35 5 35 9 0 4 -16 7 -35 5 -19 -1
-35 -5 -35 -9z"/>
<path d="M1870 1919 c-19 -4 30 -7 109 -8 79 0 141 2 137 6 -8 9 -199 10 -246
2z"/>
<path d="M1755 1870 c-3 -4 79 -8 180 -8 102 -1 185 3 185 8 0 11 -358 11
-365 0z"/>
<path d="M1690 1823 c0 -9 418 -8 427 1 4 3 -91 6 -210 6 -119 0 -217 -3 -217
-7z"/>
<path d="M1644 1779 c-10 -4 38 -8 109 -8 70 -1 127 3 127 7 0 10 -210 11
-236 1z"/>
<path d="M1596 1732 c-6 -10 190 -10 200 1 4 4 -38 7 -94 7 -55 0 -103 -4
-106 -8z"/>
<path d="M1567 1688 c-7 -4 30 -8 81 -8 50 0 92 3 92 8 0 9 -158 9 -173 0z"/>
<path d="M1535 1640 c-4 -6 23 -10 74 -10 44 0 83 5 86 10 4 6 -23 10 -74 10
-44 0 -83 -4 -86 -10z"/>
<path d="M1530 1591 c26 -8 120 -5 128 4 3 3 -30 5 -74 4 -49 -1 -70 -4 -54
-8z"/>
<path d="M1494 1548 c-3 -5 22 -8 55 -8 34 0 61 4 61 8 0 10 -110 10 -116 0z"/>
<path d="M1620 1549 c0 -5 5 -7 10 -4 6 3 10 8 10 11 0 2 -4 4 -10 4 -5 0 -10
-5 -10 -11z"/>
<path d="M1480 1502 c0 -10 126 -10 136 1 4 4 -25 7 -64 7 -40 0 -72 -4 -72
-8z"/>
<path d="M1464 1458 c-3 -4 27 -8 67 -8 40 0 70 3 66 6 -10 10 -127 12 -133 2z"/>
<path d="M1454 1409 c-3 -5 27 -8 66 -8 38 1 70 5 70 10 0 12 -129 9 -136 -2z"/>
<path d="M1453 1368 c-4 -8 10 -10 62 -10 56 0 78 2 73 8 -9 9 -129 10 -135 2z"/>
<path d="M1450 1318 c0 -4 29 -8 65 -8 36 0 65 4 65 8 0 4 -29 8 -65 8 -36 0
-65 -4 -65 -8z"/>
<path d="M1450 1272 c0 -5 31 -8 69 -8 38 0 67 4 65 8 -7 11 -134 10 -134 0z"/>
<path d="M1467 1228 c-7 -4 19 -8 57 -8 38 0 67 3 63 6 -9 9 -107 10 -120 2z"/>
<path d="M1470 1180 c0 -6 28 -10 65 -10 37 0 65 4 65 10 0 6 -28 10 -65 10
-37 0 -65 -4 -65 -10z"/>
<path d="M1480 1135 c0 -11 127 -12 137 -1 4 3 -2 6 -13 7 -90 4 -124 3 -124
-6z"/>
<path d="M1490 1089 c0 -5 35 -9 77 -9 42 0 73 3 70 7 -10 10 -147 12 -147 2z"/>
<path d="M1514 1043 c10 -11 156 -11 150 -1 -3 4 -39 8 -81 8 -42 0 -73 -3
-69 -7z"/>
<path d="M1538 998 c-7 -4 27 -8 76 -8 49 0 87 2 84 5 -9 9 -147 12 -160 3z"/>
<path d="M1565 950 c2 -4 43 -8 90 -8 47 -1 83 3 80 8 -3 4 -43 8 -90 8 -47 0
-83 -3 -80 -8z"/>
<path d="M1600 908 c0 -10 -3 -9 98 -11 46 -1 89 1 95 5 13 8 13 8 -111 11
-45 1 -82 -1 -82 -5z"/>
<path d="M1640 859 c0 -4 57 -7 126 -8 70 0 124 3 120 7 -10 9 -246 10 -246 1z"/>
<path d="M1694 813 c10 -10 426 -10 419 -1 -2 5 -99 8 -215 8 -116 0 -208 -3
-204 -7z"/>
<path d="M1766 768 c7 -10 354 -10 354 0 0 4 -81 8 -179 8 -99 0 -177 -4 -175
-8z"/>
<path d="M1854 723 c10 -10 266 -11 266 -1 0 4 -61 8 -137 8 -75 0 -133 -3
-129 -7z"/>
<path d="M2060 680 c-12 -7 -10 -9 8 -7 12 0 22 5 22 9 0 11 -12 10 -30 -2z"/>
<path d="M745 1548 c1 -465 -3 -534 -36 -586 -20 -33 -88 -62 -142 -62 -88 0
-144 40 -169 121 l-11 39 -166 -6 c-91 -3 -169 -7 -172 -10 -10 -6 10 -120 31
-175 69 -176 246 -281 475 -283 110 -1 158 5 225 29 139 49 239 146 290 280
23 60 23 63 25 588 l1 527 -176 0 -175 0 0 -462z m260 -38 c0 -234 -3 -458 -7
-498 -20 -220 -195 -364 -434 -357 -108 3 -132 8 -209 44 -86 41 -139 91 -174
164 -40 86 -46 117 -24 118 10 0 51 2 91 4 l72 4 20 -39 c43 -83 120 -123 232
-119 121 4 194 47 236 138 l26 56 2 455 c1 250 2 456 3 458 0 2 38 2 83 0 l83
-3 0 -425z"/>
<path d="M874 1459 c-12 -5 5 -8 45 -8 35 -1 62 1 60 3 -9 9 -86 12 -105 5z"/>
<path d="M860 1409 c0 -5 27 -9 60 -9 33 0 60 4 60 8 0 5 -27 9 -60 10 -33 0
-60 -4 -60 -9z"/>
<path d="M863 1368 c-5 -9 -7 -9 65 -11 28 -1 52 1 52 6 0 8 -2 9 -63 11 -27
0 -51 -2 -54 -6z"/>
<path d="M860 1318 c0 -4 27 -8 60 -8 33 0 60 3 60 8 0 4 -27 8 -60 8 -33 1
-60 -3 -60 -8z"/>
<path d="M860 1271 c0 -5 27 -9 60 -9 33 0 60 4 60 9 0 5 -27 9 -60 9 -33 0
-60 -4 -60 -9z"/>
<path d="M875 1229 c-20 -4 -6 -7 44 -8 41 0 72 1 69 4 -8 8 -82 11 -113 4z"/>
<path d="M860 1180 c0 -6 27 -10 60 -10 33 0 60 4 60 10 0 6 -27 10 -60 10
-33 0 -60 -4 -60 -10z"/>
<path d="M863 1136 c3 -9 27 -11 96 -7 13 0 21 4 18 7 -11 11 -117 10 -114 0z"/>
<path d="M864 1088 c-3 -4 22 -8 55 -8 34 0 61 3 61 8 0 10 -110 11 -116 0z"/>
<path d="M850 1042 c0 -5 29 -8 65 -8 36 0 65 3 65 8 0 4 -29 8 -65 8 -36 0
-65 -4 -65 -8z"/>
<path d="M847 998 c-7 -4 21 -8 62 -8 41 0 72 2 69 6 -9 8 -117 11 -131 2z"/>
<path d="M174 951 c7 -11 136 -14 136 -2 0 5 -32 9 -71 10 -38 0 -68 -3 -65
-8z"/>
<path d="M824 951 c7 -11 146 -12 146 -1 0 5 -34 9 -75 9 -42 0 -73 -3 -71 -8z"/>
<path d="M180 908 c0 -9 2 -9 88 -10 34 -1 65 2 69 5 3 4 -5 7 -18 8 -105 4
-139 3 -139 -3z"/>
<path d="M802 908 c-20 -8 -14 -9 71 -11 56 -2 118 10 72 13 -67 5 -128 4
-143 -2z"/>
<path d="M204 859 c-3 -5 37 -9 92 -9 54 0 94 3 90 7 -10 11 -175 12 -182 2z"/>
<path d="M750 858 c0 -10 161 -10 177 0 7 4 -30 8 -82 8 -52 0 -95 -4 -95 -8z"/>
<path d="M230 813 c0 -5 74 -8 164 -8 90 0 162 3 160 6 -5 9 -324 11 -324 2z"/>
<path d="M570 811 c0 -9 317 -8 326 2 5 4 -67 7 -159 7 -92 -1 -167 -5 -167
-9z"/>
<path d="M280 768 c0 -10 567 -11 574 0 2 4 -126 7 -285 8 -159 0 -289 -4
-289 -8z"/>
<path d="M354 722 c6 -10 422 -9 432 1 4 4 -93 7 -215 7 -122 0 -220 -4 -217
-8z"/>
<path d="M504 679 c-2 -4 30 -7 72 -7 41 0 73 2 70 5 -8 8 -137 9 -142 2z"/>
</g>
</svg>
